<svg width="32" height="32" viewBox="0 0 32 32" fill="none" xmlns="http://www.w3.org/2000/svg">
<path d="M14.5 7.5C14.5 6.6875 15.125 6 16 6C16.8125 6 17.5 6.6875 17.5 7.5V15.25L22.8125 18.75C23.5 19.25 23.6875 20.1875 23.1875 20.875C22.75 21.5625 21.8125 21.75 21.125 21.25L15.125 17.25C14.75 17 14.5 16.5 14.5 16V7.5ZM16 0C24.8125 0 32 7.1875 32 16C32 24.875 24.8125 32 16 32C7.125 32 0 24.875 0 16C0 7.1875 7.125 0 16 0ZM3 16C3 23.1875 8.8125 29 16 29C23.125 29 29 23.1875 29 16C29 8.875 23.125 3 16 3C8.8125 3 3 8.875 3 16Z" fill="#707070"/>
</svg>
